<?xml version="1.0" standalone="no"?>
<!DOCTYPE svg PUBLIC "-//W3C//DTD SVG 20010904//EN"
 "http://www.w3.org/TR/2001/REC-SVG-20010904/DTD/svg10.dtd">
<svg version="1.0" xmlns="http://www.w3.org/2000/svg"
 width="300.000000pt" height="300.000000pt" viewBox="0 0 300.000000 300.000000"
 preserveAspectRatio="xMidYMid meet">
<metadata>
Created by potrace 1.10, written by Peter Selinger 2001-2011
</metadata>
<g transform="translate(0.000000,300.000000) scale(0.100000,-0.100000)"
fill="#000000" stroke="none">
<path d="M0 1500 l0 -1500 1500 0 1500 0 0 635 0 635 -52 0 c-72 -1 -131 -15
-212 -51 -84 -39 -131 -36 -225 13 -59 30 -72 33 -155 33 -84 0 -97 -3 -172
-37 -104 -48 -136 -48 -233 0 -72 35 -81 37 -171 37 -88 0 -100 -3 -160 -33
-100 -51 -140 -52 -241 -6 -78 36 -90 39 -174 39 -82 0 -96 -3 -160 -34 -38
-19 -91 -36 -117 -39 l-48 -5 0 907 0 906 -440 0 -440 0 0 -1500z m700 0 l0
-1320 -260 0 -260 0 0 85 0 85 175 0 175 0 0 90 0 90 -175 0 -175 0 0 85 0 85
85 0 85 0 0 90 0 90 -85 0 -85 0 0 85 0 85 173 2 172 3 3 88 3 87 -176 0 -175
0 0 90 0 90 85 0 85 0 0 85 0 85 -85 0 -85 0 0 90 0 90 175 0 175 0 0 85 0 85
-175 0 -175 0 0 90 0 90 85 0 85 0 0 90 0 90 -85 0 -85 0 0 85 0 85 175 0 176
0 -3 88 -3 87 -172 3 -173 2 0 90 0 90 260 0 260 0 0 -1320z m618 -439 c119
-60 224 -60 351 -1 84 40 142 40 219 1 119 -60 235 -60 354 0 77 39 135 39
219 -1 89 -41 158 -53 233 -39 33 6 72 17 88 25 15 8 29 14 33 14 3 0 5 -74 5
-165 l0 -165 -67 -31 c-94 -44 -147 -43 -233 2 -61 32 -71 34 -165 34 -94 0
-105 -2 -175 -35 -47 -22 -90 -35 -115 -35 -25 0 -68 13 -115 35 -69 32 -82
35 -170 35 -88 0 -101 -3 -170 -35 -47 -22 -90 -35 -115 -35 -25 0 -68 13
-115 35 -70 33 -81 35 -175 35 -92 0 -105 -3 -160 -31 -68 -36 -115 -48 -145
-39 -19 6 -20 14 -20 182 0 173 0 175 21 170 35 -9 128 11 193 42 84 40 147
41 224 2z m11 -533 c60 -31 71 -33 165 -33 96 0 104 2 166 34 51 27 77 35 120
35 43 0 69 -8 120 -35 62 -32 70 -34 166 -34 95 0 104 2 169 35 92 46 145 46
235 0 101 -51 220 -53 338 -4 9 5 12 -33 12 -170 l0 -176 -970 0 -970 0 0 155
0 155 58 0 c39 0 76 9 117 26 116 50 130 54 170 50 22 -3 69 -20 104 -38z"/>
<path d="M1151 1945 c-88 -118 -161 -218 -161 -222 1 -7 93 -77 127 -96 7 -4
30 19 60 59 l48 66 3 -171 2 -171 90 0 90 0 0 171 0 172 51 -67 c31 -42 55
-64 62 -59 18 10 127 94 127 97 0 7 -322 431 -329 434 -4 1 -81 -94 -170 -213z"/>
</g>
</svg>
